<?xml version="1.0" encoding="utf-8"?>
<!-- Generator: Adobe Illustrator 24.0.0, SVG Export Plug-In . SVG Version: 6.00 Build 0)  -->
<svg version="1.1" id="Layer_1" xmlns="http://www.w3.org/2000/svg" xmlns:xlink="http://www.w3.org/1999/xlink" x="0px" y="0px"
	 viewBox="0 0 384.8 169.5" style="enable-background:new 0 0 384.8 169.5;" xml:space="preserve">
<style type="text/css">
	.st0{fill:#AE00FF;}
</style>
<path class="st0" d="M121.2,11.1v102.8c0,17.4-5.7,31-17.1,40.8S78,169.5,60,169.5c-17.7,0-32.2-4.9-43.3-14.7
	C5.6,144.9,0,131.3,0,113.9V37.2c0-14.4,11.7-26,26-26l0,0V114c0,11.1,3.1,19.6,9.3,25.7c6.2,6,14.4,9.1,24.7,9.1
	c10.6,0,19.1-3,25.5-9.1c6.4-6,9.6-14.6,9.6-25.7V37.2C95.2,22.8,106.8,11.1,121.2,11.1L121.2,11.1z"/>
<path class="st0" d="M250.8,113.1c0,16.9-3.9,30.6-11.8,40.9c-7.9,10.3-19,15.5-33.4,15.5c-7.3,0-13.6-1.5-19-4.5s-8-7.2-11.6-13
	v15.4l0,0c-14.4-0.1-26-11.8-26-26.2V26c0-14.4,11.7-26,26-26l0,0v64.4c3.6-4.9,7.9-8.7,12.9-11.4c5-2.6,10.8-4,17.5-4
	c14.5,0,25.7,5.6,33.6,16.9c7.9,11.3,11.8,26.2,11.8,44.8V113.1z M224.8,110.8c0-12.1-2.1-21.8-6.2-29.3
	c-4.1-7.4-10.7-11.1-19.7-11.1c-5.8,0-10.6,1.3-14.5,3.9s-7,6.1-9.3,10.7v48.7c2.2,4.6,5.3,8.2,9.2,10.8c3.9,2.5,8.9,3.8,14.8,3.8
	c9,0,15.5-3.2,19.6-9.5s6.1-14.9,6.1-25.7L224.8,110.8L224.8,110.8z"/>
<path class="st0" d="M289.7,33.5h-3.2c-6.3,0-11.4-5.1-11.4-11.4l0,0c0-6.3,5.1-11.4,11.4-11.4h3.2c6.3,0,11.4,5.1,11.4,11.4l0,0
	C301.1,28.4,296,33.5,289.7,33.5z M275,167.2L275,167.2V77.3c0-14.4,11.7-26,26-26l0,0v89.9C301.1,155.5,289.4,167.2,275,167.2z"/>
<path class="st0" d="M363.6,49v2.3h1.5c10.7,0,19.3,8.6,19.3,19.3l0,0h-20.8v64.1c0,4.8,1,8.2,3.1,10.2s4.8,3.1,8.3,3.1
	c1.4,0,2.8-0.1,4.2-0.4l0,0c2.1-0.4,4.1,1.1,4.4,3.2l1.1,7.8c0.7,4.6-2.3,8.9-6.8,10l0,0c-3,0.7-6.2,1-9.5,1
	c-9.6,0-17.1-2.8-22.6-8.4c-5.5-5.6-8.2-14.4-8.2-26.4V70.5l0,0c-9.8,0-17.7-7.9-17.7-17.7v-1.6h17.7V23l0,0
	C352,23,363.6,34.7,363.6,49z"/>
</svg>
