<?xml version="1.0" encoding="utf-8"?>
<!-- Generator: Adobe Illustrator 24.0.0, SVG Export Plug-In . SVG Version: 6.00 Build 0)  -->
<svg version="1.1" id="Layer_1" xmlns="http://www.w3.org/2000/svg" xmlns:xlink="http://www.w3.org/1999/xlink" x="0px" y="0px"
	 viewBox="0 0 64 64" style="enable-background:new 0 0 64 64;" xml:space="preserve">
<style type="text/css">
	.st0{fill:#AE00FF;}
</style>
<path class="st0" d="M3.2,6.4C1.4,6.4,0,7.8,0,9.6v44.8c0,1.8,1.4,3.2,3.2,3.2h57.6c1.8,0,3.2-1.4,3.2-3.2V9.6
	c0-1.8-1.4-3.2-3.2-3.2H3.2z M3.2,8.5h57.6c0.6,0,1.1,0.5,1.1,1.1v9.6H2.1V9.6C2.1,9,2.6,8.5,3.2,8.5z M27.7,10.7
	c-1.2,0-2.1,1-2.1,2.1v2.1c0,1.2,1,2.1,2.1,2.1h29.9c1.2,0,2.1-1,2.1-2.1v-2.1c0-1.2-1-2.1-2.1-2.1H27.7z M6.4,11.7
	c-1.2,0-2.1,1-2.1,2.1s1,2.1,2.1,2.1s2.1-1,2.1-2.1S7.6,11.7,6.4,11.7z M12.8,11.7c-1.2,0-2.1,1-2.1,2.1s1,2.1,2.1,2.1
	s2.1-1,2.1-2.1S14,11.7,12.8,11.7z M19.2,11.7c-1.2,0-2.1,1-2.1,2.1s1,2.1,2.1,2.1c1.2,0,2.1-1,2.1-2.1S20.4,11.7,19.2,11.7z
	 M27.7,12.8h29.9l0,2.1H27.7V12.8z M2.1,21.3h59.7v33.1c0,0.6-0.5,1.1-1.1,1.1H3.2c-0.6,0-1.1-0.5-1.1-1.1V21.3z M5.3,49.1
	c-0.6,0-1.1,0.5-1.1,1.1v2.1c0,0.6,0.5,1.1,1.1,1.1s1.1-0.5,1.1-1.1v-2.1C6.4,49.5,5.9,49.1,5.3,49.1z M10.7,49.1
	c-0.6,0-1.1,0.5-1.1,1.1v2.1c0,0.6,0.5,1.1,1.1,1.1c0.6,0,1.1-0.5,1.1-1.1v-2.1C11.7,49.5,11.3,49.1,10.7,49.1z M16,49.1
	c-0.6,0-1.1,0.5-1.1,1.1v2.1c0,0.6,0.5,1.1,1.1,1.1s1.1-0.5,1.1-1.1v-2.1C17.1,49.5,16.6,49.1,16,49.1z M21.3,49.1
	c-0.6,0-1.1,0.5-1.1,1.1v2.1c0,0.6,0.5,1.1,1.1,1.1c0.6,0,1.1-0.5,1.1-1.1v-2.1C22.4,49.5,21.9,49.1,21.3,49.1z M26.7,49.1
	c-0.6,0-1.1,0.5-1.1,1.1v2.1c0,0.6,0.5,1.1,1.1,1.1c0.6,0,1.1-0.5,1.1-1.1v-2.1C27.7,49.5,27.3,49.1,26.7,49.1z M32,49.1
	c-0.6,0-1.1,0.5-1.1,1.1v2.1c0,0.6,0.5,1.1,1.1,1.1c0.6,0,1.1-0.5,1.1-1.1v-2.1C33.1,49.5,32.6,49.1,32,49.1z M37.3,49.1
	c-0.6,0-1.1,0.5-1.1,1.1v2.1c0,0.6,0.5,1.1,1.1,1.1s1.1-0.5,1.1-1.1v-2.1C38.4,49.5,37.9,49.1,37.3,49.1z M42.7,49.1
	c-0.6,0-1.1,0.5-1.1,1.1v2.1c0,0.6,0.5,1.1,1.1,1.1s1.1-0.5,1.1-1.1v-2.1C43.7,49.5,43.3,49.1,42.7,49.1z M48,49.1
	c-0.6,0-1.1,0.5-1.1,1.1v2.1c0,0.6,0.5,1.1,1.1,1.1s1.1-0.5,1.1-1.1v-2.1C49.1,49.5,48.6,49.1,48,49.1z M53.3,49.1
	c-0.6,0-1.1,0.5-1.1,1.1v2.1c0,0.6,0.5,1.1,1.1,1.1s1.1-0.5,1.1-1.1v-2.1C54.4,49.5,53.9,49.1,53.3,49.1z M58.7,49.1
	c-0.6,0-1.1,0.5-1.1,1.1v2.1c0,0.6,0.5,1.1,1.1,1.1s1.1-0.5,1.1-1.1v-2.1C59.7,49.5,59.3,49.1,58.7,49.1z"/>
</svg>
