<svg xmlns="http://www.w3.org/2000/svg" xmlns:xlink="http://www.w3.org/1999/xlink" viewBox="0 0 64 64" fill="#AE00FF">
  <path d="M5 8C3.346 8 2 9.346 2 11L2 53C2 54.654 3.346 56 5 56L59 56C60.654 56 62 54.654 62 53L62 11C62 9.346 60.654 8 59 8L5 8 z M 5 10L59 10C59.551 10 60 10.449 60 11L60 20L4 20L4 11C4 10.449 4.449 10 5 10 z M 28 12C26.897 12 26 12.897 26 14L26 16C26 17.103 26.897 18 28 18L56 18C57.103 18 58 17.103 58 16L58 14C58 12.897 57.103 12 56 12L28 12 z M 8 13 A 2 2 0 0 0 6 15 A 2 2 0 0 0 8 17 A 2 2 0 0 0 10 15 A 2 2 0 0 0 8 13 z M 14 13 A 2 2 0 0 0 12 15 A 2 2 0 0 0 14 17 A 2 2 0 0 0 16 15 A 2 2 0 0 0 14 13 z M 20 13 A 2 2 0 0 0 18 15 A 2 2 0 0 0 20 17 A 2 2 0 0 0 22 15 A 2 2 0 0 0 20 13 z M 28 14L56 14L56.001953 16L28 16L28 14 z M 4 22L60 22L60 53C60 53.551 59.551 54 59 54L5 54C4.449 54 4 53.551 4 53L4 22 z M 7 48C6.448 48 6 48.448 6 49L6 51C6 51.552 6.448 52 7 52C7.552 52 8 51.552 8 51L8 49C8 48.448 7.552 48 7 48 z M 12 48C11.448 48 11 48.448 11 49L11 51C11 51.552 11.448 52 12 52C12.552 52 13 51.552 13 51L13 49C13 48.448 12.552 48 12 48 z M 17 48C16.448 48 16 48.448 16 49L16 51C16 51.552 16.448 52 17 52C17.552 52 18 51.552 18 51L18 49C18 48.448 17.552 48 17 48 z M 22 48C21.448 48 21 48.448 21 49L21 51C21 51.552 21.448 52 22 52C22.552 52 23 51.552 23 51L23 49C23 48.448 22.552 48 22 48 z M 27 48C26.448 48 26 48.448 26 49L26 51C26 51.552 26.448 52 27 52C27.552 52 28 51.552 28 51L28 49C28 48.448 27.552 48 27 48 z M 32 48C31.448 48 31 48.448 31 49L31 51C31 51.552 31.448 52 32 52C32.552 52 33 51.552 33 51L33 49C33 48.448 32.552 48 32 48 z M 37 48C36.448 48 36 48.448 36 49L36 51C36 51.552 36.448 52 37 52C37.552 52 38 51.552 38 51L38 49C38 48.448 37.552 48 37 48 z M 42 48C41.448 48 41 48.448 41 49L41 51C41 51.552 41.448 52 42 52C42.552 52 43 51.552 43 51L43 49C43 48.448 42.552 48 42 48 z M 47 48C46.448 48 46 48.448 46 49L46 51C46 51.552 46.448 52 47 52C47.552 52 48 51.552 48 51L48 49C48 48.448 47.552 48 47 48 z M 52 48C51.448 48 51 48.448 51 49L51 51C51 51.552 51.448 52 52 52C52.552 52 53 51.552 53 51L53 49C53 48.448 52.552 48 52 48 z M 57 48C56.448 48 56 48.448 56 49L56 51C56 51.552 56.448 52 57 52C57.552 52 58 51.552 58 51L58 49C58 48.448 57.552 48 57 48 z" fill="#AE00FF" />
</svg>