<svg xmlns="http://www.w3.org/2000/svg" xmlns:xlink="http://www.w3.org/1999/xlink" viewBox="0 0 50 50" fill="#AE00FF">
  <path d="M44 0L44 4L42 4C40.898438 4 40 4.898438 40 6L40 16C40 17.101563 40.898438 18 42 18L48 18C49.101563 18 50 17.101563 50 16L50 6C50 4.898438 49.101563 4 48 4L46 4L46 0 Z M 42 6L48 6C47.449219 6 47 6.449219 47 7C47 7.550781 47.449219 8 48 8L48 12C47.449219 12 47 12.449219 47 13C47 13.550781 47.449219 14 48 14L48 16L46 16C46 15.449219 45.550781 15 45 15C44.449219 15 44 15.449219 44 16L42 16L42 14C42.550781 14 43 13.550781 43 13C43 12.449219 42.550781 12 42 12L42 8C42.550781 8 43 7.550781 43 7C43 6.449219 42.550781 6 42 6 Z M 45 9C44.449219 9 44 9.449219 44 10C44 10.550781 44.449219 11 45 11C45.550781 11 46 10.550781 46 10C46 9.449219 45.550781 9 45 9 Z M 17 13L17 17L15 17C13.898438 17 13 17.898438 13 19L13 29C13 30.101563 13.898438 31 15 31L21 31C22.101563 31 23 30.101563 23 29L23 19C23 17.898438 22.101563 17 21 17L19 17L19 13 Z M 32 15L32 19L30 19C28.898438 19 28 19.898438 28 21L28 31C28 32.101563 28.898438 33 30 33L36 33C37.101563 33 38 32.101563 38 31L38 21C38 19.898438 37.101563 19 36 19L34 19L34 15 Z M 15 19L21 19C20.449219 19 20 19.449219 20 20C20 20.550781 20.449219 21 21 21L21 25C20.449219 25 20 25.449219 20 26C20 26.550781 20.449219 27 21 27L21 29L19 29C19 28.449219 18.550781 28 18 28C17.449219 28 17 28.449219 17 29L15 29L15 27C15.550781 27 16 26.550781 16 26C16 25.449219 15.550781 25 15 25L15 21C15.550781 21 16 20.550781 16 20C16 19.449219 15.550781 19 15 19 Z M 44 19L44 22L46 22L46 19 Z M 30 21L36 21C35.449219 21 35 21.449219 35 22C35 22.550781 35.449219 23 36 23L36 27C35.449219 27 35 27.449219 35 28C35 28.550781 35.449219 29 36 29L36 31L34 31C34 30.449219 33.550781 30 33 30C32.449219 30 32 30.449219 32 31L30 31L30 29C30.550781 29 31 28.550781 31 28C31 27.449219 30.550781 27 30 27L30 23C30.550781 23 31 22.550781 31 22C31 21.449219 30.550781 21 30 21 Z M 18 22C17.449219 22 17 22.449219 17 23C17 23.550781 17.449219 24 18 24C18.550781 24 19 23.550781 19 23C19 22.449219 18.550781 22 18 22 Z M 33 24C32.449219 24 32 24.449219 32 25C32 25.550781 32.449219 26 33 26C33.550781 26 34 25.550781 34 25C34 24.449219 33.550781 24 33 24 Z M 4 28L4 32L2 32C0.898438 32 0 32.898438 0 34L0 44C0 45.101563 0.898438 46 2 46L8 46C9.101563 46 10 45.101563 10 44L10 34C10 32.898438 9.101563 32 8 32L6 32L6 28 Z M 17 32L17 35L19 35L19 32 Z M 2 34L8 34L8 44L2 44 Z M 32 34L32 37L34 37L34 34 Z M 4 47L4 50L6 50L6 47Z" fill="#AE00FF" />
</svg>