<?xml version="1.0" encoding="utf-8"?>
<!-- Generator: Adobe Illustrator 24.0.0, SVG Export Plug-In . SVG Version: 6.00 Build 0)  -->
<svg version="1.1" id="Layer_1" xmlns="http://www.w3.org/2000/svg" xmlns:xlink="http://www.w3.org/1999/xlink" x="0px" y="0px"
	 viewBox="0 0 30 30" style="enable-background:new 0 0 30 30;" xml:space="preserve">
<style type="text/css">
	.st0{fill:#AE00FF;}
</style>
<path class="st0" d="M23.3,0c-3.7,0-6.7,3-6.7,6.7c0,5.3,5.6,6.7,5.6,8.9c0,0.6,0.5,1.1,1.1,1.1c0.6,0,1.1-0.5,1.1-1.1
	c0-2.2,5.6-3.6,5.6-8.9C30,3,27,0,23.3,0z M13.3,3.3C6,3.3,0,9.3,0,16.7S6,30,13.3,30s13.3-6,13.3-13.3c0-0.2,0-0.5,0-0.7
	c-0.2,1.3-1.1,2.4-2.4,2.8c-0.1,0.4-0.2,0.8-0.3,1.3h-4.1c0.1-1.1,0.2-2.2,0.2-3.3c0-0.3,0-0.6,0-0.9c-0.2-0.3-0.7-0.7-1.1-1
	c-0.4-0.3-0.8-0.7-1.3-1.2c0.1,1,0.2,2,0.2,3.1c0,1.2-0.1,2.3-0.2,3.3H9.1c-0.1-1-0.2-2.2-0.2-3.3c0-1.2,0.1-2.3,0.2-3.3h8.2
	c-0.6-0.6-1.2-1.4-1.7-2.2H9.5c0.8-3.4,2.4-5.6,3.8-5.6c0.4,0,0.8,0.2,1.1,0.5c0.1-0.9,0.3-1.8,0.6-2.6C14.5,3.4,13.9,3.3,13.3,3.3z
	 M23.3,4.4c1.2,0,2.2,1,2.2,2.2s-1,2.2-2.2,2.2s-2.2-1-2.2-2.2S22.1,4.4,23.3,4.4z M9,6.5c-0.7,1.3-1.3,2.8-1.7,4.7H3.7
	C4.9,9.1,6.8,7.4,9,6.5z M2.7,13.3h4.1c-0.1,1.1-0.2,2.2-0.2,3.3s0.1,2.3,0.2,3.3H2.7c-0.3-1.1-0.5-2.2-0.5-3.3S2.4,14.4,2.7,13.3z
	 M3.7,22.2h3.5c0.4,1.8,1,3.4,1.7,4.7C6.8,25.9,4.9,24.3,3.7,22.2z M9.5,22.2h7.6c-0.8,3.4-2.4,5.6-3.8,5.6S10.4,25.6,9.5,22.2z
	 M19.4,22.2h3.5c-1.2,2.1-3,3.7-5.2,4.7C18.4,25.6,19,24,19.4,22.2z"/>
</svg>
